Coordinates
version=1
nRows=22
nColumns=33
inDegrees=yes

Units are S.I. units (second, meters, Newtons, ...)
Angles are in degrees.

endheader
time	ground_thorax_rot_x	ground_thorax_rot_y	ground_thorax_rot_z	ground_thorax_tx	ground_thorax_ty	ground_thorax_tz	clav_prot_r	clav_elev_r	scapula_abduction_r	scapula_elevation_r	scapula_upward_rot_r	scapula_winging_r	shoulder_elv_r	plane_of_elev_r	axial_rot_r	elbow_flexion_r	pro_sup_r	wrist_flex_r	wrist_dev_r	clav_prot_l	clav_elev_l	scapula_abduction_l	scapula_elevation_l	scapula_upward_rot_l	scapula_winging_l	shoulder_elv_l	plane_of_elev_l	axial_rot_l	elbow_flexion_l	pro_sup_l	wrist_flex_l	wrist_dev_l	
3.5600	-28.947344	-28.197814	39.124492	-69.756138	767.582632	11.248607	8.639012	-45.000000	39.684799	-45.000000	-45.000000	-4050.964232	-3713.476084	148.156602	180.000000	1440.499639	51.253119	19.846907	17.526442	15.904486	38.188591	-33.201768	-45.000000	-45.000000	793.217460	-1179.120660	135.569384	-180.000000	-352.596220	47.344394	8.971363	-21.315694	
3.5700	-28.803533	-28.365714	39.282356	-69.948470	767.678218	11.122750	8.824660	-45.000000	39.910371	-45.000000	-45.000000	-4051.025279	-3713.485249	148.226960	180.000000	1440.505341	50.989410	19.891620	17.493442	15.734774	38.096053	-33.046277	-45.000000	-45.000000	793.360961	-1179.072674	135.494961	-180.000000	-352.651521	46.360371	9.318615	-21.253845	
3.5800	-28.637742	-28.547466	39.463885	-70.183473	767.777615	10.999506	9.009125	-45.000000	40.147307	-45.000000	-45.000000	-4051.083719	-3713.468469	148.309858	180.000000	1440.495310	50.720044	19.979076	17.402764	15.543688	37.966795	-32.842773	-45.000000	-45.000000	793.486949	-1179.010342	135.410482	-180.000000	-352.731009	45.318205	9.672261	-21.171281	
3.5900	-28.551806	-28.636013	39.558024	-70.488816	767.894734	10.878653	9.106514	-45.000000	40.275959	-45.000000	-45.000000	-4051.140672	-3713.448305	148.342671	180.000000	1440.506094	50.517463	20.029595	17.376156	15.448313	37.895521	-32.779315	-45.000000	-45.000000	793.626089	-1178.970752	135.339288	-180.000000	-352.788560	44.146539	10.011135	-21.076654	
3.6000	-28.512793	-28.662889	39.595507	-70.886452	768.023028	10.763461	9.157968	-45.000000	40.354006	-45.000000	-45.000000	-4051.206149	-3713.420414	148.336009	180.000000	1440.533079	50.360634	20.059311	17.389226	15.390500	37.847534	-32.791087	-45.000000	-45.000000	793.765146	-1178.945603	135.277763	-180.000000	-352.843532	42.875593	10.331277	-20.969962	
3.6100	-28.505074	-28.644053	39.601988	-71.395315	768.162099	10.655522	9.164696	-45.000000	40.376462	-45.000000	-45.000000	-4051.254498	-3713.367872	148.321782	180.000000	1440.565270	50.232962	20.101248	17.394636	15.381520	37.830012	-32.834493	-45.000000	-45.000000	793.893698	-1178.909458	135.220521	-180.000000	-352.889122	41.533878	10.628473	-20.847302	
3.6200	-28.522568	-28.586075	39.577721	-72.029834	768.308483	10.557075	9.157929	-45.000000	40.379340	-45.000000	-45.000000	-4051.306794	-3713.306021	148.288589	180.000000	1440.617528	50.129390	20.129075	17.424073	15.384484	37.840753	-32.902252	-45.000000	-45.000000	794.002172	-1178.869154	135.183082	-180.000000	-352.929157	40.172347	10.888891	-20.721877	
3.6300	-28.543490	-28.517083	39.556019	-72.794513	768.462632	10.468081	9.148922	-45.000000	40.373778	-45.000000	-45.000000	-4051.342312	-3713.225531	148.270578	180.000000	1440.673181	50.022709	20.180111	17.425256	15.397549	37.870103	-32.943949	-45.000000	-45.000000	794.086607	-1178.802068	135.156880	-180.000000	-352.963807	38.848909	11.114853	-20.593456	
3.6400	-28.583391	-28.422497	39.510361	-73.690862	768.628491	10.387699	9.146467	-45.000000	40.370636	-45.000000	-45.000000	-4051.393181	-3713.148136	148.233359	180.000000	1440.752434	49.919372	20.217897	17.452478	15.403362	37.911177	-33.001400	-45.000000	-45.000000	794.165540	-1178.733725	135.146371	-180.000000	-352.983999	37.612974	11.296478	-20.480716	
3.6500	-28.633291	-28.313856	39.456865	-74.716882	768.813876	10.313294	9.141148	-45.000000	40.357428	-45.000000	-45.000000	-4051.441182	-3713.058156	148.199367	180.000000	1440.841064	49.803090	20.276079	17.461734	15.416179	37.955980	-33.053681	-45.000000	-45.000000	794.248737	-1178.650196	135.134787	-180.000000	-352.981204	36.498698	11.439837	-20.383341	
3.6600	-28.702861	-28.182625	39.374063	-75.873256	769.026492	10.242540	9.139499	-45.000000	40.348898	-45.000000	-45.000000	-4051.509674	-3712.969899	148.140090	180.000000	1440.950132	49.680979	20.326000	17.494108	15.419414	37.994601	-33.131402	-45.000000	-45.000000	794.348044	-1178.570808	135.125171	-180.000000	-352.961180	35.514009	11.544612	-20.309884	
3.6700	-28.786921	-28.036006	39.271026	-77.159752	769.275190	10.172368	9.134404	-45.000000	40.338155	-45.000000	-45.000000	-4051.583071	-3712.871133	148.072061	180.000000	1441.067008	49.542672	20.391660	17.518691	15.424420	38.021506	-33.220444	-45.000000	-45.000000	794.472753	-1178.485020	135.102841	-180.000000	-352.921529	34.653843	11.620578	-20.255940	
3.6800	-28.887564	-27.869187	39.138296	-78.577405	769.568262	10.100275	9.128649	-45.000000	40.331663	-45.000000	-45.000000	-4051.671115	-3712.764184	147.982459	180.000000	1441.197213	49.390887	20.460057	17.552894	15.425379	38.035044	-33.331635	-45.000000	-45.000000	794.627600	-1178.399308	135.066637	-180.000000	-352.862057	33.898441	11.670213	-20.222760	
3.6900	-28.998200	-27.686156	38.986901	-80.126831	769.913551	10.024213	9.119302	-45.000000	40.322340	-45.000000	-45.000000	-4051.760322	-3712.636918	147.889642	180.000000	1441.334821	49.219454	20.542934	17.575789	15.432057	38.045926	-33.449753	-45.000000	-45.000000	794.805132	-1178.300797	135.015357	-180.000000	-352.779131	33.220699	11.698708	-20.204478	
3.7000	-29.117121	-27.488234	38.814449	-81.807893	770.318063	9.942899	9.110069	-45.000000	40.320582	-45.000000	-45.000000	-4051.851696	-3712.492889	147.789601	180.000000	1441.479585	49.031127	20.628663	17.598711	15.443275	38.060557	-33.577366	-45.000000	-45.000000	794.994968	-1178.191638	134.959423	-180.000000	-352.685127	32.584006	11.710603	-20.195572	
3.7100	-29.245307	-27.274516	38.621373	-83.619272	770.787986	9.855789	9.101017	-45.000000	40.324966	-45.000000	-45.000000	-4051.948043	-3712.333031	147.684281	180.000000	1441.632598	48.826066	20.718340	17.620162	15.457338	38.075851	-33.716811	-45.000000	-45.000000	795.198184	-1178.073116	134.899576	-180.000000	-352.580186	31.962952	11.709804	-20.193158	
3.7200	-29.383735	-27.045057	38.404190	-85.558674	771.328662	9.763042	9.091837	-45.000000	40.334853	-45.000000	-45.000000	-4052.047532	-3712.156569	147.570891	180.000000	1441.794191	48.606312	20.812944	17.639833	15.473462	38.093329	-33.868817	-45.000000	-45.000000	795.413780	-1177.945246	134.836972	-180.000000	-352.468493	31.344431	11.697359	-20.194808	
3.7300	-29.533823	-26.799799	38.163734	-87.623157	771.944644	9.665318	9.082484	-45.000000	40.347576	-45.000000	-45.000000	-4052.152992	-3711.965578	147.450598	180.000000	1441.966210	48.374807	20.913878	17.656881	15.491008	38.110761	-34.034222	-45.000000	-45.000000	795.643852	-1177.807712	134.770552	-180.000000	-352.349074	30.722964	11.673249	-20.199794	
3.7400	-29.693084	-26.541863	37.897806	-89.809693	772.639835	9.563552	9.072310	-45.000000	40.366090	-45.000000	-45.000000	-4052.262029	-3711.758449	147.321123	180.000000	1442.150952	48.134659	21.021840	17.670170	15.510547	38.130940	-34.208897	-45.000000	-45.000000	795.885987	-1177.662116	134.702478	-180.000000	-352.225137	30.097584	11.636728	-20.206916	
3.7500	-29.861719	-26.272726	37.608593	-92.115186	773.417510	9.458713	9.060297	-45.000000	40.389815	-45.000000	-45.000000	-4052.376939	-3711.538681	147.185698	180.000000	1442.352932	47.888803	21.138403	17.678349	15.531603	38.153582	-34.390161	-45.000000	-45.000000	796.139954	-1177.506688	134.633675	-180.000000	-352.093915	29.469934	11.587562	-20.216957	
3.7600	-30.040342	-25.992638	37.294321	-94.536807	774.280422	9.351650	9.046787	-45.000000	40.419385	-45.000000	-45.000000	-4052.495226	-3711.306840	147.043603	180.000000	1442.573584	47.640587	21.264125	17.680275	15.554078	38.182326	-34.576673	-45.000000	-45.000000	796.402684	-1177.339470	134.566002	-180.000000	-351.957030	28.842769	11.524914	-20.229858	
3.7700	-30.230255	-25.699858	36.956471	-97.071319	775.230505	9.243032	9.032018	-45.000000	40.453020	-45.000000	-45.000000	-4052.617289	-3711.063649	146.896994	180.000000	1442.808677	47.394435	21.397862	17.674973	15.577629	38.215309	-34.769850	-45.000000	-45.000000	796.675324	-1177.161836	134.498104	-180.000000	-351.815992	28.218828	11.449641	-20.245832	
